<svg width="512" height="512" viewBox="0 0 512 512" fill="none" xmlns="http://www.w3.org/2000/svg">
<rect width="512" height="512" rx="24" fill="url(#paint0_linear_84_2583)"/>
<rect width="512" height="512" rx="24" fill="black" fill-opacity="0.2"/>
<g clip-path="url(#clip0_84_2583)">
<path d="M393.668 153.063C380.161 153.063 369.277 163.94 369.277 177.348V193.908C369.277 201.212 363.365 207.171 355.988 207.171C348.612 207.171 342.699 201.212 342.699 193.908V126.899C342.699 120.159 339.96 114.055 335.598 109.702C331.163 105.276 325.047 102.543 318.309 102.543C304.874 102.543 293.976 113.419 293.976 126.885V274.528C293.976 281.89 288.005 287.791 280.687 287.791C273.368 287.791 267.325 281.89 267.325 274.528V101.284C267.325 94.5442 264.586 88.5129 260.224 84.0871C255.789 79.7336 249.674 77 242.993 77C229.559 77 218.661 87.8765 218.661 101.284V193.908C218.661 201.212 212.69 207.171 205.299 207.171C197.908 207.171 192.009 201.212 192.009 193.908V126.899C192.009 113.434 181.111 102.557 167.677 102.557C160.924 102.557 154.808 105.291 150.388 109.716C146.026 114.07 143.287 120.173 143.287 126.913V274.557C143.287 281.919 137.374 287.82 129.998 287.82C122.621 287.82 116.708 281.919 116.708 274.557V177.377C116.708 163.969 105.81 153.092 92.3179 153.092C85.5646 153.092 79.5214 155.826 75.0868 160.179C70.7246 164.605 67.9856 170.637 67.9856 177.377V334.696C67.9856 348.103 78.8837 358.98 92.3179 358.98C105.752 358.98 116.708 348.103 116.708 334.696V309.153C116.708 301.849 122.621 295.89 129.998 295.89C137.374 295.89 143.287 301.849 143.287 309.153V385.144C143.287 398.624 154.185 409.486 167.677 409.486C181.169 409.486 192.009 398.61 192.009 385.144V228.519C192.009 221.157 197.98 215.184 205.299 215.184C212.617 215.184 218.661 221.143 218.661 228.519V410.759C218.661 424.167 229.559 435.043 242.993 435.043C256.427 435.043 267.325 424.167 267.325 410.759V309.153C267.325 301.849 273.296 295.89 280.687 295.89C288.078 295.89 293.976 301.849 293.976 309.153V385.144C293.976 398.624 304.874 409.486 318.309 409.486C331.743 409.486 342.699 398.61 342.699 385.144V228.519C342.699 221.157 348.612 215.184 355.988 215.184C363.365 215.184 369.277 221.143 369.277 228.519V334.681C369.277 348.089 380.176 358.966 393.668 358.966C407.16 358.966 418 348.089 418 334.681V177.362C418 170.622 415.261 164.591 410.899 160.165C406.464 155.811 400.421 153.078 393.668 153.078V153.063Z" fill="white"/>
</g>
<defs>
<linearGradient id="paint0_linear_84_2583" x1="-0.0474557" y1="256.023" x2="512.047" y2="256.023" gradientUnits="userSpaceOnUse">
<stop stop-color="#01E4AC"/>
<stop offset="0.12" stop-color="#01C3B8"/>
<stop offset="0.34" stop-color="#0189CD"/>
<stop offset="0.55" stop-color="#025CDE"/>
<stop offset="0.74" stop-color="#023BEA"/>
<stop offset="0.9" stop-color="#0227F2"/>
<stop offset="1" stop-color="#0320F5"/>
</linearGradient>
<clipPath id="clip0_84_2583">
<rect width="350" height="358" fill="white" transform="translate(68 77)"/>
</clipPath>
</defs>
</svg>
