<svg width="150" height="19" viewBox="0 0 150 19" fill="none" xmlns="http://www.w3.org/2000/svg">
<g clip-path="url(#clip0_8_2660)">
<path d="M125.164 8.0307C125.32 8.19609 125.418 8.42297 125.418 8.67529V14.5636C125.418 14.64 125.41 14.7142 125.391 14.7799C125.298 15.1807 124.957 15.4754 124.55 15.4754C124.351 15.4754 124.163 15.4075 124.019 15.2867C123.81 15.1234 123.676 14.8605 123.676 14.5657V10.5942C123.676 10.3101 123.467 10.0917 123.204 10.0917C122.94 10.0917 122.727 10.3101 122.727 10.5942V16.4571C122.727 16.966 122.342 17.3753 121.858 17.3753C121.373 17.3753 120.988 16.9681 120.988 16.4571V13.6137C120.988 13.3338 120.775 13.1112 120.516 13.1112C120.256 13.1112 120.039 13.3338 120.039 13.6137V17.3625C120.039 17.8396 119.711 18.2743 119.257 18.3188C118.738 18.3718 118.304 17.9456 118.304 17.4134V10.5921C118.304 10.308 118.087 10.0896 117.824 10.0896C117.56 10.0896 117.351 10.308 117.351 10.5921V16.455C117.351 16.9639 116.962 17.3731 116.482 17.3731C116.001 17.3731 115.612 16.966 115.612 16.455V13.6116C115.612 13.3317 115.399 13.109 115.135 13.109C114.872 13.109 114.663 13.3317 114.663 13.6116V14.5636C114.663 15.0704 114.274 15.4733 113.793 15.4733C113.313 15.4733 112.924 15.0704 112.924 14.5636V13.8427C112.255 13.6688 111.569 13.5119 110.87 13.372C110.736 13.3444 110.611 13.4547 110.611 13.5967V13.6052C110.615 13.6158 110.615 13.6285 110.615 13.6391V17.617C110.615 17.6276 110.615 17.6424 110.611 17.6552C110.592 17.8439 110.44 17.9944 110.254 17.9944H108.15C107.951 17.9944 107.789 17.8248 107.789 17.617V13.4038C107.789 13.1536 107.979 12.9542 108.214 12.95H108.218C108.237 12.95 108.255 12.95 108.273 12.9542C108.778 13.0157 109.283 13.0899 109.777 13.1726C109.492 13.126 109.198 13.0899 108.906 13.0475C109.356 13.1154 109.879 13.2002 110.179 13.249C110.311 13.2702 110.426 13.1642 110.426 13.0242V11.2431C110.426 11.1031 110.307 10.9971 110.175 11.0204C109.917 11.065 109.524 11.1307 109.303 11.1625C108.958 11.2155 108.616 11.2643 108.267 11.3067C108.01 11.3364 107.787 11.1243 107.787 10.8529V5.59013C107.787 5.38233 107.949 5.2127 108.147 5.2127H110.252C110.44 5.2127 110.59 5.36324 110.609 5.55196C110.613 5.56256 110.613 5.57952 110.613 5.59013V10.6218C110.613 10.6324 110.613 10.6451 110.609 10.6557V10.6706C110.609 10.8126 110.732 10.9208 110.866 10.8953C111.567 10.7639 112.253 10.6112 112.922 10.4373V8.67529C112.922 8.42297 113.019 8.19609 113.175 8.0307C113.347 7.85046 113.587 7.74656 113.854 7.76565C114.318 7.79957 114.663 8.23637 114.663 8.72406V12.3118C114.663 12.5874 114.872 12.8143 115.135 12.8143C115.399 12.8143 115.612 12.5874 115.612 12.3118V6.78179C115.612 6.52946 115.709 6.30258 115.865 6.14355C116.04 5.95695 116.283 5.8573 116.552 5.8785C117.011 5.91455 117.353 6.34286 117.353 6.82207V9.29233C117.353 9.56798 117.566 9.79486 117.826 9.79486C118.085 9.79486 118.306 9.56798 118.306 9.29233V5.87426C118.306 5.39929 118.634 4.96673 119.084 4.9222C119.356 4.89464 119.612 4.99642 119.788 5.17877C119.944 5.34416 120.041 5.57104 120.041 5.82337V12.3118C120.041 12.5874 120.254 12.8143 120.518 12.8143C120.781 12.8143 120.99 12.5874 120.99 12.3118V6.82207C120.99 6.34074 121.333 5.91243 121.791 5.8785C122.061 5.8573 122.304 5.95907 122.478 6.14355C122.632 6.30258 122.732 6.52734 122.732 6.78179V9.29233C122.732 9.56798 122.944 9.79486 123.208 9.79486C123.471 9.79486 123.68 9.56798 123.68 9.29233V8.67741C123.68 8.17488 124.07 7.76353 124.554 7.76353C124.795 7.76353 125.008 7.86531 125.168 8.0307H125.164ZM146.203 10.4416C144.768 9.95813 143.45 9.57434 143.45 8.63077V8.582C143.45 7.88015 144.074 7.32037 145.161 7.32037C146.124 7.32037 147.298 7.73384 148.421 8.41449C148.526 8.4781 148.66 8.44205 148.719 8.33179L149.623 6.6376C149.68 6.53158 149.649 6.39799 149.55 6.33226C148.279 5.50531 146.694 4.9943 145.23 4.9943C142.801 4.9943 140.881 6.47433 140.881 8.91702V8.96579C140.881 11.3894 142.895 12.1633 144.699 12.6956C146.136 13.1557 147.431 13.4949 147.431 14.4894V14.5339C147.431 15.3842 146.734 15.9143 145.534 15.9143C144.334 15.9143 142.998 15.4287 141.711 14.4788C141.611 14.4046 141.471 14.43 141.404 14.5361L140.464 16.0309C140.36 16.1963 140.393 16.4232 140.547 16.5398C142.027 17.6785 143.829 18.2383 145.465 18.2383C148.009 18.2383 150.002 16.9067 150.002 14.218V14.1692C150.002 11.8707 147.989 11.0204 146.205 10.4395L146.203 10.4416ZM6.53584 10.573C6.47705 10.484 6.48719 10.3631 6.55814 10.2847L10.935 5.59861C11.0688 5.45442 10.9715 5.21482 10.7809 5.21482H8.04817C7.94883 5.21482 7.85355 5.25723 7.78463 5.33356L3.19494 10.4607C3.06114 10.6112 2.8199 10.5116 2.8199 10.3059V0.552077C2.8199 0.426974 2.72259 0.325195 2.60298 0.325195H0.216915C0.0973078 0.325195 0 0.426974 0 0.552077V17.7675C0 17.8926 0.0973078 17.9944 0.216915 17.9944H2.60501C2.72462 17.9944 2.82193 17.8926 2.82193 17.7675V14.4915C2.82193 14.394 2.85842 14.3007 2.92329 14.2286L4.37682 12.651C4.47211 12.5471 4.63428 12.562 4.71132 12.6807L8.06236 17.8269C8.12926 17.9308 8.24076 17.9923 8.36036 17.9923H11.0424C11.2168 17.9923 11.3201 17.7866 11.2208 17.6361L6.53584 10.5688V10.573ZM37.056 12.6616H34.9781C34.7794 12.6616 34.6173 12.8313 34.6173 13.0391V17.7675C34.6173 17.8926 34.7146 17.9944 34.8342 17.9944H37.202C37.3216 17.9944 37.4189 17.8926 37.4189 17.7675V13.0391C37.4189 12.8313 37.2567 12.6616 37.0581 12.6616H37.056ZM47.5024 12.6616H45.4022C45.2502 12.6616 45.1164 12.7613 45.0637 12.9076L44.4656 14.6081L43.8696 12.9076C43.8169 12.7592 43.6831 12.6595 43.5311 12.6595H41.3943C41.2403 12.6595 41.1349 12.8228 41.1936 12.9712L43.1357 17.9499C43.1682 18.0347 43.2493 18.0898 43.3364 18.0898H45.5684C45.6556 18.0898 45.7367 18.0347 45.7691 17.9478L47.7052 12.9691C47.764 12.8207 47.6585 12.6574 47.5045 12.6574L47.5024 12.6616ZM43.3121 11.3152L41.2646 5.46078C41.2119 5.31235 41.0781 5.2127 40.926 5.2127H38.4934C38.3393 5.2127 38.2339 5.37597 38.2927 5.52439L40.5591 11.3364C40.626 11.506 40.7841 11.6184 40.9605 11.6184H43.1094C43.2594 11.6184 43.3648 11.4615 43.3121 11.3131V11.3152ZM50.3933 5.2127H48.0255C47.8734 5.2127 47.7396 5.31235 47.6869 5.45866L45.6252 11.3131C45.5725 11.4615 45.6779 11.6184 45.8279 11.6184H47.9363C48.1126 11.6184 48.2708 11.506 48.3377 11.3364L50.594 5.52439C50.6528 5.37597 50.5474 5.2127 50.3933 5.2127ZM62.7027 11.224C62.7129 11.4382 62.5446 11.6205 62.3419 11.6205H51.267C51.0643 11.6205 50.896 11.4424 50.9062 11.2325C51.0765 7.75504 53.497 4.95189 56.8683 4.95189C60.5417 4.95189 62.502 7.80593 62.7027 11.2261V11.224ZM59.9457 9.83515C59.7571 7.948 57.8961 7.34793 56.842 7.34793C55.7351 7.34793 53.9268 7.85046 53.6734 9.83515H59.9457ZM60.6714 14.5C60.5883 14.4216 60.4606 14.4258 60.3795 14.5064C59.4551 15.4075 58.5104 15.891 57.215 15.891C55.506 15.891 54.1477 14.8499 53.7545 12.9691C53.718 12.791 53.574 12.6595 53.3997 12.6595H51.4718C51.194 12.6595 50.9893 12.9288 51.0461 13.2129C51.6664 16.2875 54.1153 18.2849 57.1663 18.2849C59.3213 18.2849 60.8802 17.4155 62.0236 16.0627C62.1027 15.9694 62.0925 15.8253 62.0033 15.7426L60.6694 14.5H60.6714ZM67.2215 12.6616H65.1091C64.9104 12.6616 64.7482 12.8313 64.7482 13.0391V17.7675C64.7482 17.8926 64.8455 17.9944 64.9651 17.9944H67.3532C67.4728 17.9944 67.5701 17.8948 67.5701 17.7697C67.5701 16.9448 67.5742 14.0781 67.5803 13.0369C67.5803 12.8291 67.4201 12.6595 67.2215 12.6595V12.6616ZM71.6834 4.96673C69.9785 4.96461 68.7581 5.87002 67.9736 7.25463C67.8621 7.45183 67.5722 7.37125 67.5722 7.14013V5.43958C67.5722 5.31448 67.4749 5.2127 67.3553 5.2127H64.9672C64.8475 5.2127 64.7502 5.31448 64.7502 5.43958V11.241C64.7502 11.4488 64.9124 11.6184 65.1111 11.6184H67.4161C67.5843 11.6184 67.7262 11.4933 67.7668 11.3215C68.2756 9.14602 69.7697 8.06886 71.7402 8.06886H71.8983V5.19361C71.8983 5.06851 71.801 4.96461 71.6814 4.96461L71.6834 4.96673ZM81.6615 12.6616H78.1078C77.8706 12.6616 77.8057 13.003 78.0267 13.0984C78.8051 13.4356 79.6769 13.936 79.6769 14.4894V14.5339C79.6769 15.3842 78.9835 15.9143 77.7814 15.9143C76.5792 15.9143 75.1176 15.3821 73.7755 14.341L72.5268 16.3257C74.0533 17.6085 75.9731 18.2404 77.7084 18.2404C80.2567 18.2404 82.2454 16.9088 82.2454 14.2201V14.1713C82.2454 13.6709 82.1501 13.2384 81.9818 12.8652C81.9251 12.738 81.7953 12.6616 81.6615 12.6616ZM74.3756 11.5484C74.4364 11.5951 74.5135 11.6184 74.5885 11.6184H80.1877C80.4148 11.6184 80.4898 11.2982 80.2871 11.188C79.7093 10.8741 79.0667 10.6409 78.4524 10.4395C77.0171 9.95601 75.6954 9.57222 75.6954 8.62865V8.57988C75.6954 7.87803 76.3238 7.31824 77.4104 7.31824C78.4281 7.31824 79.6769 7.77837 80.8608 8.52899L81.9697 6.44464C80.6743 5.54984 79.0079 4.99218 77.4814 4.99218C75.0527 4.99218 73.1289 6.47221 73.1289 8.9149V8.96367C73.1289 10.1829 73.6397 10.9865 74.3797 11.5463L74.3756 11.5484ZM95.9293 12.6616H93.7662C93.5797 12.6616 93.4094 12.7846 93.3547 12.9712C92.8742 14.659 91.4998 15.7235 89.9955 15.7235C88.4913 15.7235 87.1209 14.6718 86.6526 12.9754C86.5999 12.7867 86.4276 12.6616 86.2411 12.6616H84.1348C83.9138 12.6616 83.7395 12.8673 83.778 13.0942C84.3375 16.4126 86.8047 18.2637 89.3245 18.2637C91.0457 18.2637 92.2316 17.4664 93.1053 16.3872C93.2371 16.2239 93.4885 16.3172 93.4885 16.5292V17.9965H96.2881V13.0412C96.2881 12.8334 96.1259 12.6637 95.9273 12.6637L95.9293 12.6616ZM93.4905 6.56975C93.4905 6.77967 93.2452 6.87296 93.1114 6.71817C92.2559 5.72583 91.068 4.94977 89.3266 4.94977C86.5006 4.94977 83.8266 7.23555 83.6645 11.2325C83.6563 11.4445 83.8226 11.6205 84.0253 11.6205H86.1316C86.3262 11.6205 86.4783 11.4594 86.4925 11.2558C86.6384 8.94882 88.173 7.49212 89.9996 7.49212C91.8261 7.49212 93.3486 8.96791 93.5229 11.207C93.5412 11.4403 93.7277 11.6205 93.9527 11.6205H95.9313C96.13 11.6205 96.2922 11.453 96.2922 11.2431V5.21482H93.4925V6.57187L93.4905 6.56975ZM105.443 15.3015C104.983 15.4987 104.515 15.5963 104 15.5963C103.051 15.5963 102.496 15.1404 102.496 13.9996V13.0369C102.496 12.8291 102.333 12.6595 102.135 12.6595H100.057C99.8581 12.6595 99.6959 12.8291 99.6959 13.0369V14.4597C99.6959 17.2671 101.154 18.2107 103.215 18.2107C104.184 18.2107 104.904 18.0114 105.547 17.6658C105.664 17.6021 105.737 17.4707 105.737 17.3307V15.5114C105.737 15.3545 105.585 15.24 105.445 15.2994L105.443 15.3015ZM102.494 4.98794V1.70345H99.6939V4.98794C99.6939 5.11304 99.5966 5.21482 99.477 5.21482H98.1451V7.73172H99.477C99.5966 7.73172 99.6939 7.8335 99.6939 7.9586V11.2431C99.6939 11.4509 99.8561 11.6205 100.055 11.6205H102.133C102.331 11.6205 102.494 11.4509 102.494 11.2431V7.9586C102.494 7.8335 102.591 7.73172 102.71 7.73172H105.782V5.21482H102.71C102.591 5.21482 102.494 5.11304 102.494 4.98794ZM108.058 3.25346H110.343C110.542 3.25346 110.704 3.08382 110.704 2.87603V0.846811C110.704 0.639013 110.542 0.469382 110.343 0.469382H108.058C107.86 0.469382 107.697 0.639013 107.697 0.846811V2.87815C107.697 3.08594 107.86 3.25558 108.058 3.25558V3.25346ZM134.333 4.94977C134.218 4.94977 134.11 4.95401 134.001 4.96037C133.91 4.96673 133.821 4.97521 133.733 4.98581C133.675 4.9943 133.618 5.00066 133.563 5.01126C133.488 5.02186 133.415 5.03458 133.342 5.05367C133.263 5.06851 133.184 5.08759 133.107 5.11304C133.066 5.12152 133.032 5.13212 132.995 5.14272C132.916 5.16605 132.841 5.19573 132.76 5.22542C132.673 5.2551 132.59 5.29327 132.507 5.33144C132.432 5.36961 132.355 5.40777 132.28 5.44382C132.229 5.4735 132.183 5.50107 132.136 5.53076C131.714 5.78732 131.349 6.11174 131.039 6.47433C130.988 6.53582 130.938 6.59095 130.891 6.65244C130.891 6.65244 130.889 6.65527 130.885 6.66092C130.751 6.82631 130.63 6.99594 130.514 7.17406V5.43746C130.514 5.31236 130.417 5.21058 130.297 5.21058H127.909C127.789 5.21058 127.692 5.31236 127.692 5.43746V17.7654C127.692 17.8905 127.789 17.9923 127.909 17.9923H130.297C130.417 17.9923 130.514 17.8905 130.514 17.7654V10.7787C130.514 8.79404 131.647 7.60874 133.267 7.60874C134.887 7.60874 135.884 8.74951 135.884 10.73V17.7654C135.884 17.8905 135.982 17.9923 136.101 17.9923H138.469C138.589 17.9923 138.686 17.8905 138.686 17.7654V9.83515C138.686 6.88356 137.086 4.94765 134.333 4.94765V4.94977ZM37.3723 9.03364C37.2811 8.19609 37.0479 7.45607 36.679 6.84752C36.606 6.72666 36.5269 6.61003 36.4418 6.49553C36.4012 6.43828 36.3546 6.38527 36.312 6.33438C36.2755 6.28986 36.237 6.24745 36.1965 6.20716C36.1417 6.14567 36.089 6.0863 36.0262 6.03329C35.9755 5.98452 35.9248 5.93787 35.8721 5.89334C35.8214 5.84881 35.7667 5.80641 35.714 5.76612C35.6572 5.72371 35.6025 5.68342 35.5437 5.64526C35.4241 5.5668 35.2984 5.49047 35.1687 5.42262C35.1099 5.39293 35.0531 5.36536 34.9923 5.33992C34.9274 5.31023 34.8626 5.28267 34.7936 5.25722C34.7288 5.22966 34.6598 5.20422 34.5909 5.18089H34.5828C34.5321 5.16181 34.4753 5.14696 34.4206 5.12788C34.3659 5.11728 34.3091 5.10244 34.2503 5.08547C34.1956 5.07063 34.1429 5.06003 34.0881 5.05155C34.0375 5.04095 33.9827 5.02822 33.93 5.02186C33.855 5.00702 33.778 4.99642 33.6989 4.98794C33.6199 4.98157 33.5408 4.97309 33.4577 4.96461C33.3786 4.96037 33.2955 4.95613 33.2124 4.95401C33.1617 4.94977 33.1151 4.94977 33.0644 4.94977C32.9569 4.94977 32.8475 4.95401 32.7461 4.96037C32.6549 4.96461 32.5697 4.97097 32.4866 4.98369C32.4136 4.99218 32.3427 5.00278 32.2738 5.01762C32.1582 5.03246 32.0467 5.06003 31.9352 5.08971C31.8663 5.10456 31.7974 5.12364 31.7325 5.14696C31.7183 5.15121 31.7041 5.15545 31.6899 5.16181C31.6352 5.17665 31.5825 5.19149 31.5318 5.21482C31.4993 5.22542 31.4669 5.24238 31.4345 5.25298C31.3797 5.27207 31.3291 5.29539 31.2824 5.32084C31.2176 5.34628 31.1527 5.37809 31.0919 5.41201C31.0311 5.4417 30.9723 5.47563 30.9155 5.50955C30.9074 5.51379 30.9013 5.51803 30.8973 5.52015C30.8243 5.56256 30.7574 5.60709 30.6885 5.65162C30.6195 5.70039 30.5506 5.74916 30.4857 5.80217C30.3519 5.90394 30.2262 6.0142 30.1066 6.12659C30.1026 6.13295 30.0965 6.14143 30.0884 6.14143C30.0154 6.20928 29.9445 6.28561 29.8796 6.35983C29.839 6.40436 29.8005 6.451 29.76 6.49553C29.7133 6.54854 29.6687 6.59731 29.6262 6.65032C29.4964 6.81359 29.2471 6.71181 29.2471 6.50401V5.2127H26.4211V10.5646C26.4211 10.7978 26.2163 10.9802 25.9954 10.9378C25.371 10.8211 24.7547 10.6854 24.1506 10.537V8.66893C24.1506 8.41661 24.0533 8.18973 23.8952 8.02434C23.737 7.86107 23.5201 7.75929 23.2809 7.75929C23.2444 7.75929 23.212 7.76353 23.1755 7.76777C23.139 7.77625 23.1005 7.78261 23.064 7.79109C23.0133 7.80169 22.9667 7.82078 22.9241 7.8441C22.8552 7.87379 22.7944 7.91619 22.7356 7.96496C22.7356 7.96496 22.7342 7.96496 22.7315 7.96496C22.5612 8.10491 22.4436 8.31695 22.4173 8.55867C22.4132 8.58836 22.4092 8.62228 22.4092 8.65409C22.4051 8.66257 22.4051 8.66469 22.4092 8.67317C22.4051 8.68802 22.4051 8.70286 22.4051 8.7177V9.29233C22.4051 9.39411 22.3767 9.49165 22.3261 9.57222C22.2389 9.70368 22.099 9.79062 21.9328 9.79062C21.7665 9.79062 21.6226 9.70368 21.5395 9.57222C21.4888 9.49377 21.4604 9.39411 21.4604 9.29233V6.78179C21.4604 6.52946 21.3631 6.30258 21.205 6.13931C21.0327 5.95907 20.7935 5.85518 20.5259 5.87426C20.4975 5.87426 20.4671 5.8785 20.4387 5.88486C20.384 5.89546 20.3313 5.91031 20.2765 5.93363C20.2502 5.94211 20.2258 5.95695 20.2015 5.96756C19.9481 6.0969 19.7717 6.34923 19.7332 6.65032C19.7292 6.67365 19.7251 6.69485 19.7251 6.71817C19.7211 6.73726 19.7211 6.76058 19.7211 6.77754C19.717 6.79239 19.717 6.81147 19.717 6.82631V12.3075C19.717 12.4093 19.6886 12.5068 19.6379 12.5874C19.6237 12.6065 19.6096 12.6256 19.5954 12.6447C19.567 12.6786 19.5305 12.7125 19.4899 12.7358C19.4676 12.7507 19.4494 12.7592 19.4291 12.7698C19.3703 12.7931 19.3095 12.8079 19.2446 12.8079C19.1798 12.8079 19.1149 12.7931 19.0602 12.7698C18.9994 12.7443 18.9487 12.7062 18.9081 12.6595C18.821 12.5683 18.7682 12.4475 18.7682 12.3096V5.82125C18.7682 5.59861 18.6932 5.39929 18.5696 5.24026C18.5513 5.21694 18.5331 5.19573 18.5148 5.17665H18.5108C18.3547 5.0155 18.1357 4.9116 17.8965 4.9116C17.8641 4.9116 17.8276 4.91584 17.7911 4.92008C17.7587 4.92432 17.7262 4.93068 17.6898 4.93917C17.6472 4.94977 17.6026 4.96673 17.56 4.98369L17.5174 5.00702C17.4809 5.02186 17.4485 5.04519 17.4161 5.06851H17.412C17.3755 5.0982 17.337 5.12788 17.3046 5.16605C17.2681 5.20422 17.2356 5.24238 17.2073 5.28267C17.114 5.40777 17.0552 5.55408 17.037 5.71311C17.0329 5.74704 17.0289 5.78096 17.0289 5.81489C17.0289 5.81489 17.0248 5.81913 17.0289 5.82337C17.0248 5.83821 17.0248 5.8573 17.0248 5.87214V9.29233C17.0248 9.36442 17.0106 9.42803 16.9883 9.48528V9.48953C16.9599 9.5489 16.9275 9.59979 16.8829 9.64431C16.7998 9.73549 16.6782 9.79062 16.5464 9.79062C16.4146 9.79062 16.297 9.73337 16.2139 9.64431C16.1713 9.59979 16.1349 9.54678 16.1085 9.48528C16.0862 9.42803 16.072 9.36018 16.072 9.29233V6.78179C16.072 6.37467 15.8166 6.02693 15.4578 5.91455C15.4213 5.90394 15.3848 5.89546 15.3503 5.8891C15.3219 5.88062 15.2935 5.8785 15.2631 5.8785C14.9955 5.85942 14.7584 5.96119 14.584 6.14355C14.4279 6.30682 14.3306 6.53158 14.3306 6.78603V12.316C14.3306 12.3881 14.3164 12.4517 14.2941 12.5132C14.284 12.5429 14.2698 12.5705 14.2515 12.5959V12.6001C14.2191 12.6531 14.1765 12.6977 14.1259 12.7316C14.0995 12.7507 14.0711 12.7655 14.0427 12.7761C13.9839 12.7995 13.9231 12.8143 13.8542 12.8143C13.7204 12.8143 13.6048 12.757 13.5177 12.668C13.4812 12.6341 13.4528 12.5895 13.4305 12.5429C13.3981 12.475 13.3798 12.3987 13.3798 12.316V8.67741C13.3798 8.63925 13.3758 8.60108 13.3697 8.56503C13.3454 8.32755 13.2318 8.12399 13.0656 7.98405C13.0413 7.96496 13.019 7.94588 12.9926 7.9268C12.9521 7.89711 12.9095 7.86955 12.8629 7.85046C12.8203 7.82714 12.7717 7.80806 12.723 7.79745C12.6865 7.78897 12.648 7.78261 12.6115 7.77413C12.5791 7.76989 12.5426 7.76565 12.5101 7.76565C12.2709 7.76565 12.052 7.86743 11.8939 8.0307C11.7378 8.19609 11.6404 8.42297 11.6404 8.67529V14.5679C11.6404 14.7226 11.6769 14.869 11.7418 14.9983C11.7783 15.0704 11.8209 15.134 11.8797 15.1913C11.9303 15.2506 11.9912 15.3015 12.056 15.346C12.1898 15.4287 12.3419 15.4775 12.5081 15.4775C12.6561 15.4775 12.8 15.4393 12.9237 15.3672C12.9744 15.3418 13.021 15.3058 13.0636 15.2697C13.0818 15.2549 13.096 15.24 13.1102 15.2252C13.2805 15.0598 13.3819 14.8244 13.3819 14.5679V13.6137C13.3819 13.5458 13.396 13.478 13.4183 13.4207C13.4447 13.3571 13.4792 13.3041 13.5238 13.2617C13.6109 13.1663 13.7265 13.1154 13.8562 13.1154C13.986 13.1154 14.1056 13.1726 14.1907 13.2617C14.2333 13.3041 14.2698 13.3571 14.2961 13.4207C14.3184 13.478 14.3326 13.5458 14.3326 13.6137V16.4592C14.3326 16.966 14.7219 17.3731 15.2023 17.3731C15.6828 17.3731 16.072 16.966 16.072 16.4592V10.5942C16.072 10.5222 16.0862 10.4585 16.1085 10.3971C16.1349 10.3356 16.1693 10.2847 16.2139 10.238C16.297 10.1468 16.4166 10.0917 16.5464 10.0917C16.6761 10.0917 16.7998 10.149 16.8829 10.238C16.9255 10.2826 16.962 10.3356 16.9883 10.3971C17.0106 10.4585 17.0248 10.5222 17.0248 10.5942V17.3668C17.0248 17.3859 17.0248 17.4049 17.0289 17.4198C17.0289 17.4389 17.0289 17.4537 17.0329 17.4686C17.0512 17.8545 17.3005 18.1789 17.6391 18.287C17.6938 18.3061 17.7465 18.3167 17.8053 18.3252C18.3243 18.3824 18.7662 17.952 18.7662 17.4198V13.6158C18.7662 13.3402 18.9791 13.1175 19.2426 13.1175C19.3724 13.1175 19.492 13.1748 19.5751 13.2638C19.6014 13.2829 19.6177 13.3083 19.6359 13.3359C19.6866 13.4144 19.715 13.514 19.715 13.6158V16.4614C19.715 16.7137 19.8123 16.9406 19.9704 17.106C20.1468 17.2947 20.4002 17.4007 20.6739 17.371C20.7286 17.3647 20.7854 17.3519 20.836 17.3371C20.8644 17.3265 20.8948 17.3138 20.9232 17.3032C20.9638 17.2841 21.0023 17.2608 21.0388 17.2396C21.2922 17.0805 21.4584 16.7943 21.4584 16.4614V10.5964C21.4584 10.4903 21.4868 10.3971 21.5375 10.3122C21.6206 10.1808 21.7645 10.0938 21.9307 10.0938C22.097 10.0938 22.2369 10.1808 22.324 10.3122C22.3747 10.3949 22.4031 10.4903 22.4031 10.5964V14.5149C22.4031 14.5339 22.4031 14.553 22.4072 14.5721C22.4072 14.5869 22.4072 14.6018 22.4112 14.6209C22.4254 14.9495 22.6099 15.2315 22.8734 15.3757C22.92 15.4033 22.9707 15.4245 23.0255 15.4436C23.0802 15.4584 23.1329 15.469 23.1876 15.4775C23.4613 15.503 23.7147 15.3991 23.887 15.2125C23.9377 15.1637 23.9783 15.1064 24.0168 15.0471V15.0428C24.0533 14.9792 24.0817 14.9114 24.104 14.8435C24.1323 14.7566 24.1465 14.6654 24.1465 14.5721V13.7409C24.7486 13.5904 25.3629 13.4568 25.9913 13.3402C26.2123 13.2977 26.417 13.4759 26.417 13.7133V18.0008H29.243V13.2871C29.243 13.0751 29.0768 12.9055 28.8781 12.9055C28.868 12.9055 28.8518 12.9097 28.8416 12.9097C28.2497 12.9733 27.6679 13.0539 27.0941 13.1472C27.08 13.1514 27.0617 13.1514 27.0475 13.1557C26.8265 13.1896 26.6319 13.0157 26.6319 12.7867V11.5039C26.6319 11.2707 26.8265 11.0968 27.0475 11.1307C27.0617 11.1349 27.08 11.1349 27.0941 11.1392C27.2462 11.1646 27.3982 11.188 27.5523 11.207C27.978 11.2749 28.4078 11.3279 28.8396 11.3724C28.8619 11.3767 28.8822 11.3767 28.9045 11.3724C29.089 11.3576 29.239 11.1943 29.239 10.995V10.7914C29.239 8.80676 30.3722 7.62146 31.992 7.62146C32.0285 7.62146 32.065 7.62146 32.0994 7.6257C32.1177 7.6257 32.14 7.6257 32.1582 7.62994C32.2312 7.62994 32.2981 7.63842 32.367 7.64478C32.3893 7.64903 32.4096 7.64903 32.4319 7.65539C32.5069 7.65963 32.5799 7.67447 32.6529 7.68931C32.667 7.69355 32.6812 7.69779 32.6954 7.69991C32.7684 7.71476 32.8394 7.73384 32.9083 7.76141C32.9772 7.78049 33.0461 7.80593 33.1151 7.83774C33.1759 7.86319 33.2347 7.89075 33.2914 7.92468C33.3097 7.93316 33.332 7.94376 33.3502 7.95436C33.4192 7.99677 33.4881 8.03706 33.553 8.09007C33.6138 8.13247 33.6685 8.177 33.7232 8.22577C33.7374 8.23637 33.7496 8.2491 33.7638 8.26394C33.8104 8.30635 33.855 8.35088 33.8895 8.39964C33.9077 8.41449 33.9219 8.43357 33.9361 8.45265C34.0435 8.57988 34.1409 8.72406 34.2219 8.88733C34.2625 8.95519 34.2949 9.02728 34.3233 9.10149C34.5139 9.55526 34.6112 10.1066 34.6112 10.7427V11.2516C34.6112 11.4594 34.7734 11.629 34.972 11.629H37.0499C37.2486 11.629 37.4108 11.4594 37.4108 11.2516V9.84787C37.4108 9.64431 37.4027 9.445 37.3885 9.25204C37.3804 9.17995 37.3743 9.11209 37.3662 9.04424L37.3723 9.03364Z" fill="url(#paint0_linear_8_2660)"/>
</g>
<defs>
<linearGradient id="paint0_linear_8_2660" x1="0" y1="9.32413" x2="150" y2="9.32413" gradientUnits="userSpaceOnUse">
<stop stop-color="#01E4AC"/>
<stop offset="0.12" stop-color="#01C3B8"/>
<stop offset="0.34" stop-color="#0189CD"/>
<stop offset="0.55" stop-color="#025CDE"/>
<stop offset="0.74" stop-color="#023BEA"/>
<stop offset="0.9" stop-color="#0227F2"/>
<stop offset="1" stop-color="#0320F5"/>
</linearGradient>
<clipPath id="clip0_8_2660">
<rect width="150" height="18" fill="white" transform="translate(0 0.325195)"/>
</clipPath>
</defs>
</svg>
