<svg width="56" height="58" viewBox="0 0 56 58" fill="none" xmlns="http://www.w3.org/2000/svg">
<g clip-path="url(#clip0_644_4493)">
<path d="M52.1081 12.3237C49.9492 12.3237 48.2055 14.0857 48.2055 16.2568V18.9392C48.2055 20.1217 47.261 21.0866 46.0804 21.0866C44.8998 21.0866 43.9553 20.1191 43.9553 18.9392V8.08119C43.9553 6.99042 43.5168 6.0019 42.8188 5.29656C42.1105 4.58074 41.1322 4.13761 40.0502 4.13761C37.9018 4.13761 36.1581 5.89964 36.1581 8.08119V31.9996C36.1581 33.1927 35.2032 34.1471 34.033 34.1471C32.8628 34.1471 31.8949 33.1927 31.8949 31.9996V3.93309C31.8949 2.84231 31.4564 1.86429 30.7584 1.14846C30.05 0.443128 29.0718 0 28.0028 0C25.8543 0 24.1106 1.76203 24.1106 3.93309V18.9392C24.1106 20.1217 23.1532 21.0866 21.9726 21.0866C20.792 21.0866 19.8475 20.1191 19.8475 18.9392V8.08119C19.8475 5.89964 18.1038 4.13761 15.9553 4.13761C14.8759 4.13761 13.8977 4.58074 13.1867 5.29656C12.4887 6.0019 12.0502 6.99042 12.0502 8.08119V31.9996C12.0502 33.1927 11.1057 34.1471 9.92512 34.1471C8.74451 34.1471 7.80001 33.1927 7.80001 31.9996V16.2542C7.80001 14.0831 6.05634 12.3211 3.8975 12.3211C2.81809 12.3211 1.85024 12.7642 1.14187 13.4695C0.443885 14.1854 0.00537109 15.1634 0.00537109 16.2542V41.7406C0.00537109 43.9117 1.74905 45.6737 3.8975 45.6737C6.04596 45.6737 7.80001 43.9117 7.80001 41.7406V37.603C7.80001 36.4204 8.74451 35.4555 9.92512 35.4555C11.1057 35.4555 12.0502 36.4231 12.0502 37.603V49.9136C12.0502 52.0951 13.7939 53.8571 15.9527 53.8571C18.1116 53.8571 19.8449 52.0951 19.8449 49.9136V24.5399C19.8449 23.3468 20.8023 22.3793 21.97 22.3793C23.1376 22.3793 24.1081 23.3468 24.1081 24.5399V54.0617C24.1081 56.2327 25.8517 57.9948 28.0002 57.9948C30.1486 57.9948 31.8923 56.2327 31.8923 54.0617V37.6004C31.8923 36.4178 32.8498 35.4529 34.0304 35.4529C35.211 35.4529 36.1555 36.4204 36.1555 37.6004V49.9109C36.1555 52.0925 37.8992 53.8545 40.0476 53.8545C42.1961 53.8545 43.9501 52.0925 43.9501 49.9109V24.5373C43.9501 23.3442 44.8946 22.3767 46.0752 22.3767C47.2559 22.3767 48.2003 23.3442 48.2003 24.5373V41.738C48.2003 43.909 49.944 45.6711 52.1029 45.6711C54.2617 45.6711 55.995 43.909 55.995 41.738V16.2568C55.995 15.166 55.5565 14.188 54.8585 13.4722C54.1501 12.7668 53.1823 12.3237 52.1029 12.3237H52.1081Z" fill="url(#paint0_linear_644_4493)"/>
</g>
<defs>
<linearGradient id="paint0_linear_644_4493" x1="0.000181584" y1="29" x2="56.0002" y2="29" gradientUnits="userSpaceOnUse">
<stop stop-color="#01E4AC"/>
<stop offset="0.12" stop-color="#01C3B8"/>
<stop offset="0.34" stop-color="#0189CD"/>
<stop offset="0.55" stop-color="#025CDE"/>
<stop offset="0.74" stop-color="#023BEA"/>
<stop offset="0.9" stop-color="#0227F2"/>
<stop offset="1" stop-color="#0320F5"/>
</linearGradient>
<clipPath id="clip0_644_4493">
<rect width="56" height="58" fill="white"/>
</clipPath>
</defs>
</svg>
