<svg width="58" height="58" viewBox="0 0 58 58" fill="none" xmlns="http://www.w3.org/2000/svg">
<g clip-path="url(#clip0_644_4483)">
<path d="M53.3614 12.3231C51.1775 12.3231 49.4177 14.0852 49.4177 16.2574V18.9404C49.4177 20.1238 48.4617 21.0892 47.269 21.0892C46.0763 21.0892 45.1202 20.1238 45.1202 18.9404V8.0842C45.1202 6.99224 44.6773 6.00339 43.972 5.29808C43.255 4.58104 42.2661 4.13817 41.1765 4.13817C39.0043 4.13817 37.2422 5.90029 37.2422 8.08185V32.0017C37.2422 33.1944 36.2768 34.1505 35.0935 34.1505C33.9101 34.1505 32.933 33.1944 32.933 32.0017V3.93431C32.933 2.84236 32.4901 1.86522 31.7848 1.14819C31.0678 0.442873 30.0789 0 28.9987 0C26.8265 0 25.0644 1.76212 25.0644 3.93431V18.9404C25.0644 20.1238 24.099 21.0892 22.9039 21.0892C21.7089 21.0892 20.7552 20.1238 20.7552 18.9404V8.0842C20.7552 5.90263 18.993 4.14051 16.8208 4.14051C15.7289 4.14051 14.74 4.58339 14.0254 5.30042C13.32 6.00574 12.8772 6.99459 12.8772 8.08654V32.0064C12.8772 33.1991 11.9211 34.1551 10.7284 34.1551C9.53569 34.1551 8.57965 33.1991 8.57965 32.0064V16.2621C8.57965 14.0899 6.81753 12.3278 4.63597 12.3278C3.54402 12.3278 2.56688 12.7707 1.84985 13.476C1.14453 14.193 0.70166 15.1702 0.70166 16.2621V41.7496C0.70166 43.9218 2.46378 45.6839 4.63597 45.6839C6.80816 45.6839 8.57965 43.9218 8.57965 41.7496V37.6114C8.57965 36.4281 9.53569 35.4627 10.7284 35.4627C11.9211 35.4627 12.8772 36.4281 12.8772 37.6114V49.9228C12.8772 52.1067 14.6393 53.8665 16.8208 53.8665C19.0024 53.8665 20.7552 52.1044 20.7552 49.9228V24.5478C20.7552 23.3551 21.7206 22.3874 22.9039 22.3874C24.0872 22.3874 25.0644 23.3528 25.0644 24.5478V54.0727C25.0644 56.2449 26.8265 58.007 28.9987 58.007C31.1709 58.007 32.933 56.2449 32.933 54.0727V37.6114C32.933 36.4281 33.8984 35.4627 35.0935 35.4627C36.2885 35.4627 37.2422 36.4281 37.2422 37.6114V49.9228C37.2422 52.1067 39.0043 53.8665 41.1765 53.8665C43.3487 53.8665 45.1202 52.1044 45.1202 49.9228V24.5478C45.1202 23.3551 46.0763 22.3874 47.269 22.3874C48.4617 22.3874 49.4177 23.3528 49.4177 24.5478V41.7473C49.4177 43.9194 51.1798 45.6816 53.3614 45.6816C55.543 45.6816 57.2957 43.9194 57.2957 41.7473V16.2598C57.2957 15.1678 56.8528 14.1907 56.1475 13.4737C55.4305 12.7683 54.4534 12.3255 53.3614 12.3255V12.3231Z" fill="white"/>
</g>
<defs>
<clipPath id="clip0_644_4483">
<rect width="56.5917" height="58" fill="white" transform="translate(0.704102)"/>
</clipPath>
</defs>
</svg>
