<svg width="558" height="64" viewBox="0 0 558 64" fill="none" xmlns="http://www.w3.org/2000/svg">
<g clip-path="url(#clip0_445_213)">
<path d="M465.476 27.3973C466.056 27.9854 466.418 28.7921 466.418 29.6892V50.6255C466.418 50.8969 466.388 51.1608 466.32 51.3945C465.973 52.8194 464.707 53.8674 463.191 53.8674C462.453 53.8674 461.751 53.6261 461.216 53.1964C460.44 52.6159 459.942 51.681 459.942 50.6331V36.5122C459.942 35.5019 459.166 34.7254 458.185 34.7254C457.205 34.7254 456.414 35.5019 456.414 36.5122V57.358C456.414 59.1674 454.981 60.6225 453.179 60.6225C451.378 60.6225 449.945 59.1749 449.945 57.358V47.248C449.945 46.2528 449.153 45.4612 448.188 45.4612C447.223 45.4612 446.417 46.2528 446.417 47.248V60.5772C446.417 62.2735 445.195 63.8191 443.507 63.9774C441.577 64.1659 439.963 62.6505 439.963 60.7582V36.5047C439.963 35.4944 439.157 34.7179 438.176 34.7179C437.196 34.7179 436.42 35.4944 436.42 36.5047V57.3505C436.42 59.1599 434.972 60.6149 433.186 60.6149C431.399 60.6149 429.951 59.1674 429.951 57.3505V47.2404C429.951 46.2453 429.16 45.4536 428.18 45.4536C427.199 45.4536 426.423 46.2453 426.423 47.2404V50.6255C426.423 52.4274 424.975 53.8598 423.189 53.8598C421.402 53.8598 419.954 52.4274 419.954 50.6255V48.0622C417.466 47.444 414.918 46.8861 412.317 46.3885C411.82 46.2905 411.352 46.6825 411.352 47.1877V47.2178C411.367 47.2555 411.367 47.3007 411.367 47.3384V61.4819C411.367 61.5196 411.367 61.5724 411.352 61.6176C411.284 62.2886 410.719 62.8239 410.025 62.8239H402.2C401.461 62.8239 400.858 62.2208 400.858 61.4819V46.5016C400.858 45.612 401.566 44.9033 402.441 44.8882H402.456C402.524 44.8882 402.592 44.8882 402.659 44.9033C404.537 45.1219 406.414 45.3858 408.254 45.6798C407.191 45.514 406.097 45.3858 405.012 45.235C406.685 45.4763 408.63 45.7778 409.746 45.9512C410.236 46.0266 410.666 45.6497 410.666 45.1521V38.8192C410.666 38.3216 410.221 37.9446 409.731 38.0276C408.774 38.1859 407.311 38.4196 406.489 38.5327C405.208 38.7212 403.934 38.8946 402.637 39.0454C401.679 39.1509 400.85 38.397 400.85 37.432V18.7198C400.85 17.9809 401.453 17.3778 402.192 17.3778H410.018C410.719 17.3778 411.277 17.9131 411.345 18.5841C411.36 18.6217 411.36 18.6821 411.36 18.7198V36.6102C411.36 36.6479 411.36 36.6931 411.345 36.7308V36.7836C411.345 37.2887 411.804 37.6732 412.302 37.5828C414.911 37.1153 417.459 36.5725 419.947 35.9543V29.6892C419.947 28.7921 420.309 27.9854 420.889 27.3973C421.53 26.7565 422.42 26.3871 423.415 26.4549C425.141 26.5756 426.423 28.1286 426.423 29.8626V42.6189C426.423 43.599 427.199 44.4057 428.18 44.4057C429.16 44.4057 429.951 43.599 429.951 42.6189V22.9568C429.951 22.0596 430.313 21.2529 430.894 20.6875C431.542 20.024 432.447 19.6697 433.449 19.7451C435.153 19.8732 436.427 21.3962 436.427 23.1V31.8831C436.427 32.8632 437.219 33.6699 438.184 33.6699C439.149 33.6699 439.971 32.8632 439.971 31.8831V19.73C439.971 18.0412 441.192 16.5032 442.866 16.3449C443.876 16.2469 444.826 16.6088 445.482 17.2572C446.062 17.8452 446.424 18.6519 446.424 19.5491V42.6189C446.424 43.599 447.216 44.4057 448.196 44.4057C449.176 44.4057 449.953 43.599 449.953 42.6189V23.1C449.953 21.3886 451.227 19.8657 452.931 19.7451C453.933 19.6697 454.838 20.0316 455.486 20.6875C456.059 21.2529 456.429 22.0521 456.429 22.9568V31.8831C456.429 32.8632 457.22 33.6699 458.201 33.6699C459.181 33.6699 459.957 32.8632 459.957 31.8831V29.6968C459.957 27.91 461.405 26.4474 463.207 26.4474C464.104 26.4474 464.895 26.8093 465.491 27.3973H465.476ZM543.717 35.9694C538.38 34.2504 533.479 32.8859 533.479 29.5309V29.3575C533.479 26.8621 535.801 24.8717 539.842 24.8717C543.423 24.8717 547.788 26.3419 551.965 28.7619C552.357 28.9881 552.855 28.8599 553.073 28.4679L556.436 22.4441C556.647 22.0671 556.534 21.5922 556.164 21.3585C551.437 18.4182 545.542 16.6012 540.099 16.6012C531.067 16.6012 523.927 21.8636 523.927 30.5487V30.7221C523.927 39.3394 531.413 42.0912 538.123 43.9835C543.469 45.6195 548.286 46.8258 548.286 50.3616V50.52C548.286 53.5432 545.693 55.428 541.229 55.428C536.766 55.428 531.798 53.7015 527.011 50.324C526.641 50.0601 526.121 50.1505 525.872 50.5275L522.374 55.8426C521.989 56.4307 522.11 57.2374 522.683 57.652C528.187 61.7006 534.889 63.6909 540.973 63.6909C550.435 63.6909 557.846 58.9563 557.846 49.3966V49.2232C557.846 41.0508 550.359 38.0276 543.725 35.9618L543.717 35.9694ZM24.3063 36.4368C24.0876 36.1202 24.1253 35.6904 24.3892 35.4115L40.6663 18.7499C41.1639 18.2372 40.802 17.3853 40.0933 17.3853H29.9305C29.5611 17.3853 29.2067 17.5361 28.9504 17.8075L11.8817 36.0372C11.3841 36.5725 10.487 36.2182 10.487 35.4869V0.806691C10.487 0.36188 10.1251 0 9.68029 0H0.806691C0.36188 0 0 0.36188 0 0.806691V62.0172C0 62.462 0.36188 62.8239 0.806691 62.8239H9.68783C10.1326 62.8239 10.4945 62.462 10.4945 62.0172V50.3692C10.4945 50.0224 10.6302 49.6907 10.8715 49.4343L16.2771 43.8252C16.6314 43.4558 17.2345 43.5085 17.521 43.9307L29.9833 62.2283C30.2321 62.5977 30.6467 62.8164 31.0915 62.8164H41.0659C41.7142 62.8164 42.0987 62.0851 41.7293 61.5498L24.3063 36.4217V36.4368ZM137.808 43.8629H130.081C129.342 43.8629 128.739 44.466 128.739 45.2049V62.0172C128.739 62.462 129.101 62.8239 129.546 62.8239H138.351C138.796 62.8239 139.158 62.462 139.158 62.0172V45.2049C139.158 44.466 138.555 43.8629 137.816 43.8629H137.808ZM176.658 43.8629H168.847C168.282 43.8629 167.784 44.2172 167.588 44.7374L165.364 50.7838L163.148 44.7374C162.952 44.2097 162.454 43.8553 161.889 43.8553H153.942C153.369 43.8553 152.977 44.4359 153.196 44.9636L160.418 62.6656C160.539 62.9671 160.841 63.1632 161.165 63.1632H169.465C169.79 63.1632 170.091 62.9671 170.212 62.658L177.412 44.9561C177.63 44.4283 177.238 43.8478 176.665 43.8478L176.658 43.8629ZM161.074 39.0755L153.46 18.2599C153.264 17.7321 152.766 17.3778 152.201 17.3778H143.154C142.581 17.3778 142.189 17.9583 142.407 18.486L150.836 39.1509C151.085 39.754 151.673 40.1536 152.329 40.1536H160.32C160.878 40.1536 161.27 39.5957 161.074 39.068V39.0755ZM187.409 17.3778H178.603C178.037 17.3778 177.54 17.7321 177.344 18.2523L169.677 39.068C169.481 39.5957 169.873 40.1536 170.43 40.1536H178.271C178.927 40.1536 179.515 39.754 179.764 39.1509L188.155 18.486C188.374 17.9583 187.982 17.3778 187.409 17.3778ZM233.186 38.7513C233.224 39.5128 232.598 40.1612 231.845 40.1612H190.658C189.904 40.1612 189.278 39.5279 189.316 38.7815C189.949 26.4172 198.951 16.4505 211.489 16.4505C225.15 16.4505 232.44 26.5982 233.186 38.7589V38.7513ZM222.933 33.8132C222.232 27.1033 215.311 24.9697 211.391 24.9697C207.274 24.9697 200.549 26.7565 199.607 33.8132H222.933ZM225.632 50.3993C225.323 50.1204 224.848 50.1355 224.547 50.422C221.109 53.6261 217.595 55.345 212.778 55.345C206.422 55.345 201.371 51.6433 199.909 44.9561C199.773 44.3228 199.238 43.8553 198.589 43.8553H191.419C190.387 43.8553 189.625 44.8128 189.836 45.8231C192.143 56.7549 201.251 63.8568 212.597 63.8568C220.611 63.8568 226.409 60.7657 230.661 55.9557C230.955 55.624 230.917 55.1113 230.585 54.8173L225.625 50.3993H225.632ZM249.991 43.8629H242.135C241.397 43.8629 240.794 44.466 240.794 45.2049V62.0172C240.794 62.462 241.155 62.8239 241.6 62.8239H250.481C250.926 62.8239 251.288 62.4695 251.288 62.0247C251.288 59.092 251.303 48.899 251.326 45.1973C251.326 44.4585 250.73 43.8553 249.991 43.8553V43.8629ZM266.585 16.5032C260.245 16.4957 255.706 19.7149 252.788 24.638C252.374 25.3391 251.296 25.0527 251.296 24.2309V18.1845C251.296 17.7397 250.934 17.3778 250.489 17.3778H241.608C241.163 17.3778 240.801 17.7397 240.801 18.1845V38.8116C240.801 39.5505 241.404 40.1536 242.143 40.1536H250.715C251.341 40.1536 251.869 39.7088 252.019 39.0981C253.912 31.3629 259.468 27.533 266.796 27.533H267.384V17.3099C267.384 16.8651 267.022 16.4957 266.577 16.4957L266.585 16.5032ZM303.693 43.8629H290.477C289.595 43.8629 289.353 45.0767 290.175 45.416C293.07 46.6147 296.312 48.3939 296.312 50.3616V50.52C296.312 53.5432 293.734 55.428 289.263 55.428C284.792 55.428 279.356 53.5356 274.365 49.8339L269.721 56.8906C275.398 61.4518 282.538 63.6984 288.991 63.6984C298.468 63.6984 305.864 58.9638 305.864 49.4042V49.2308C305.864 47.4515 305.51 45.9135 304.884 44.5866C304.673 44.1343 304.19 43.8629 303.693 43.8629ZM276.597 39.9048C276.823 40.0707 277.11 40.1536 277.389 40.1536H298.212C299.056 40.1536 299.335 39.0152 298.581 38.6232C296.433 37.5074 294.043 36.6781 291.758 35.9618C286.421 34.2429 281.505 32.8783 281.505 29.5234V29.35C281.505 26.8545 283.842 24.8642 287.883 24.8642C291.668 24.8642 296.312 26.5002 300.715 29.169L304.839 21.758C300.021 18.5765 293.824 16.5937 288.147 16.5937C279.115 16.5937 271.96 21.856 271.96 30.5412V30.7146C271.96 35.0496 273.86 37.9069 276.612 39.8973L276.597 39.9048ZM356.753 43.8629H348.709C348.016 43.8629 347.382 44.3002 347.179 44.9636C345.392 50.9648 340.28 54.7494 334.686 54.7494C329.092 54.7494 323.996 51.01 322.254 44.9787C322.058 44.3077 321.417 43.8629 320.724 43.8629H312.891C312.069 43.8629 311.42 44.5942 311.564 45.4009C313.644 57.1997 322.82 63.7814 332.191 63.7814C338.592 63.7814 343.002 60.9466 346.251 57.1092C346.741 56.5287 347.676 56.8604 347.676 57.6143V62.8314H358.088V45.2124C358.088 44.4736 357.485 43.8704 356.746 43.8704L356.753 43.8629ZM347.684 22.2029C347.684 22.9492 346.772 23.281 346.274 22.7306C343.092 19.2023 338.675 16.4429 332.198 16.4429C321.689 16.4429 311.745 24.5701 311.141 38.7815C311.111 39.5354 311.73 40.1612 312.483 40.1612H320.317C321.04 40.1612 321.606 39.5882 321.659 38.8644C322.201 30.6618 327.909 25.4824 334.701 25.4824C341.494 25.4824 347.156 30.7297 347.804 38.691C347.872 39.5203 348.566 40.1612 349.403 40.1612H356.761C357.5 40.1612 358.103 39.5656 358.103 38.8192V17.3853H347.691V22.2104L347.684 22.2029ZM392.135 53.2491C390.423 53.9503 388.682 54.2971 386.767 54.2971C383.239 54.2971 381.173 52.6762 381.173 48.6201V45.1973C381.173 44.4585 380.57 43.8553 379.831 43.8553H372.103C371.364 43.8553 370.761 44.4585 370.761 45.1973V50.2561C370.761 60.238 376.182 63.5929 383.849 63.5929C387.453 63.5929 390.129 62.8842 392.519 61.6553C392.957 61.4291 393.228 60.9617 393.228 60.4641V53.9955C393.228 53.4376 392.663 53.0305 392.142 53.2416L392.135 53.2491ZM381.165 16.5786V4.90046H370.754V16.5786C370.754 17.0234 370.392 17.3853 369.947 17.3853H364.994V26.3343H369.947C370.392 26.3343 370.754 26.6962 370.754 27.141V38.8192C370.754 39.558 371.357 40.1612 372.096 40.1612H379.823C380.562 40.1612 381.165 39.558 381.165 38.8192V27.141C381.165 26.6962 381.527 26.3343 381.972 26.3343H393.394V17.3853H381.972C381.527 17.3853 381.165 17.0234 381.165 16.5786ZM401.86 10.4116H410.357C411.096 10.4116 411.699 9.80846 411.699 9.06962V1.85464C411.699 1.1158 411.096 0.512663 410.357 0.512663H401.86C401.121 0.512663 400.518 1.1158 400.518 1.85464V9.07716C400.518 9.816 401.121 10.4191 401.86 10.4191V10.4116ZM499.575 16.4429C499.146 16.4429 498.746 16.458 498.339 16.4806C498 16.5032 497.668 16.5334 497.344 16.5711C497.125 16.6012 496.914 16.6239 496.711 16.6616C496.432 16.6993 496.16 16.7445 495.889 16.8123C495.595 16.8651 495.301 16.933 495.014 17.0234C494.864 17.0536 494.735 17.0913 494.6 17.129C494.306 17.2119 494.027 17.3175 493.725 17.423C493.401 17.5286 493.092 17.6643 492.783 17.8C492.504 17.9357 492.217 18.0714 491.938 18.1996C491.75 18.3051 491.576 18.4031 491.403 18.5087C489.835 19.4209 488.478 20.5744 487.324 21.8636C487.136 22.0822 486.947 22.2782 486.774 22.4969C486.774 22.4969 486.766 22.5069 486.751 22.527C486.254 23.1151 485.801 23.7182 485.372 24.3515V18.1769C485.372 17.7321 485.01 17.3702 484.565 17.3702H475.684C475.239 17.3702 474.877 17.7321 474.877 18.1769V62.0097C474.877 62.4545 475.239 62.8164 475.684 62.8164H484.565C485.01 62.8164 485.372 62.4545 485.372 62.0097V37.1681C485.372 30.1114 489.586 25.897 495.61 25.897C501.634 25.897 505.343 29.9531 505.343 36.9947V62.0097C505.343 62.4545 505.705 62.8164 506.15 62.8164H514.955C515.4 62.8164 515.762 62.4545 515.762 62.0097V33.8132C515.762 23.3186 509.814 16.4354 499.575 16.4354V16.4429ZM138.985 30.9634C138.645 27.9854 137.778 25.3542 136.406 23.1905C136.135 22.7608 135.841 22.3461 135.524 21.939C135.373 21.7354 135.2 21.5469 135.042 21.366C134.906 21.2077 134.763 21.0569 134.612 20.9137C134.408 20.695 134.212 20.4839 133.979 20.2954C133.79 20.122 133.602 19.9562 133.406 19.7979C133.217 19.6395 133.014 19.4888 132.818 19.3455C132.606 19.1947 132.403 19.0515 132.184 18.9158C131.739 18.6368 131.272 18.3654 130.789 18.1242C130.571 18.0186 130.36 17.9206 130.134 17.8301C129.892 17.7246 129.651 17.6266 129.395 17.5361C129.154 17.4381 128.897 17.3476 128.641 17.2647H128.611C128.422 17.1968 128.211 17.1441 128.008 17.0762C127.804 17.0385 127.593 16.9857 127.374 16.9254C127.171 16.8727 126.975 16.835 126.771 16.8048C126.583 16.7671 126.379 16.7219 126.183 16.6993C125.904 16.6465 125.618 16.6088 125.324 16.5786C125.03 16.556 124.736 16.5259 124.426 16.4957C124.132 16.4806 123.823 16.4655 123.514 16.458C123.326 16.4429 123.152 16.4429 122.964 16.4429C122.564 16.4429 122.157 16.458 121.78 16.4806C121.441 16.4957 121.124 16.5183 120.815 16.5636C120.544 16.5937 120.28 16.6314 120.024 16.6842C119.594 16.737 119.179 16.835 118.765 16.9405C118.508 16.9933 118.252 17.0611 118.011 17.1441C117.958 17.1591 117.905 17.1742 117.852 17.1968C117.649 17.2496 117.453 17.3024 117.264 17.3853C117.144 17.423 117.023 17.4833 116.902 17.521C116.699 17.5889 116.51 17.6718 116.337 17.7623C116.096 17.8528 115.854 17.9658 115.628 18.0865C115.402 18.192 115.183 18.3126 114.972 18.4333C114.942 18.4483 114.92 18.4634 114.904 18.471C114.633 18.6217 114.384 18.7801 114.128 18.9384C113.872 19.1118 113.615 19.2852 113.374 19.4737C112.876 19.8356 112.409 20.2276 111.964 20.6272C111.949 20.6498 111.926 20.6799 111.896 20.6799C111.625 20.9212 111.361 21.1926 111.12 21.4565C110.969 21.6148 110.826 21.7807 110.675 21.939C110.502 22.1275 110.336 22.3009 110.177 22.4893C109.695 23.0699 108.768 22.708 108.768 21.9691V17.3778H98.258V36.4066C98.258 37.236 97.4965 37.8843 96.6748 37.7335C94.3527 37.3189 92.0608 36.8364 89.8141 36.3086V29.6666C89.8141 28.7695 89.4522 27.9628 88.8642 27.3747C88.2761 26.7942 87.4694 26.4323 86.5798 26.4323C86.4441 26.4323 86.3235 26.4474 86.1878 26.4625C86.0521 26.4926 85.9088 26.5153 85.7731 26.5454C85.5846 26.5831 85.4112 26.651 85.2529 26.7339C84.9966 26.8394 84.7704 26.9902 84.5518 27.1636C84.5518 27.1636 84.5467 27.1636 84.5367 27.1636C83.9034 27.6612 83.4661 28.4151 83.3681 29.2746C83.353 29.3801 83.338 29.5008 83.338 29.6139C83.3229 29.644 83.3229 29.6515 83.338 29.6817C83.3229 29.7345 83.3229 29.7873 83.3229 29.84V31.8831C83.3229 32.245 83.2173 32.5918 83.0289 32.8783C82.7047 33.3457 82.1845 33.6548 81.5663 33.6548C80.9481 33.6548 80.4128 33.3457 80.1037 32.8783C79.9152 32.5994 79.8096 32.245 79.8096 31.8831V22.9568C79.8096 22.0596 79.4478 21.2529 78.8597 20.6724C78.2189 20.0316 77.3293 19.6622 76.3341 19.73C76.2285 19.73 76.1154 19.7451 76.0099 19.7677C75.8063 19.8054 75.6103 19.8582 75.4068 19.9411C75.3088 19.9713 75.2183 20.024 75.1278 20.0617C74.1854 20.5216 73.5295 21.4188 73.3863 22.4893C73.3712 22.5723 73.3561 22.6477 73.3561 22.7306C73.341 22.7984 73.341 22.8814 73.341 22.9417C73.326 22.9945 73.326 23.0623 73.326 23.1151V42.6038C73.326 42.9657 73.2204 43.3125 73.0319 43.599C72.9792 43.6669 72.9264 43.7347 72.8736 43.8026C72.7681 43.9232 72.6323 44.0438 72.4816 44.1268C72.3986 44.1795 72.3308 44.2097 72.2554 44.2474C72.0368 44.3303 71.8106 44.3831 71.5693 44.3831C71.3281 44.3831 71.0868 44.3303 70.8833 44.2474C70.6571 44.1569 70.4686 44.0212 70.3178 43.8553C69.9936 43.5312 69.7976 43.1014 69.7976 42.6114V19.5415C69.7976 18.7499 69.5187 18.0412 69.0588 17.4758C68.9909 17.3929 68.9231 17.3175 68.8552 17.2496H68.8401C68.2596 16.6766 67.4454 16.3072 66.5558 16.3072C66.4352 16.3072 66.2995 16.3223 66.1637 16.3374C66.0431 16.3525 65.9225 16.3751 65.7868 16.4052C65.6285 16.4429 65.4626 16.5032 65.3043 16.5636L65.146 16.6465C65.0103 16.6993 64.8896 16.7822 64.769 16.8651H64.7539C64.6182 16.9707 64.475 17.0762 64.3543 17.2119C64.2186 17.3476 64.098 17.4833 63.9925 17.6266C63.6457 18.0714 63.427 18.5916 63.3592 19.157C63.3441 19.2777 63.329 19.3983 63.329 19.5189C63.329 19.5189 63.3139 19.534 63.329 19.5491C63.3139 19.6018 63.3139 19.6697 63.3139 19.7225V31.8831C63.3139 32.1395 63.2612 32.3657 63.1782 32.5692V32.5843C63.0727 32.7954 62.9521 32.9763 62.7862 33.1346C62.4771 33.4588 62.0247 33.6548 61.5347 33.6548C61.0447 33.6548 60.6074 33.4513 60.2983 33.1346C60.14 32.9763 60.0042 32.7878 59.9062 32.5692C59.8233 32.3657 59.7705 32.1244 59.7705 31.8831V22.9568C59.7705 21.5092 58.8206 20.2728 57.4862 19.8732C57.3505 19.8356 57.2148 19.8054 57.0866 19.7828C56.981 19.7526 56.8755 19.7451 56.7624 19.7451C55.7672 19.6772 54.8851 20.0391 54.2368 20.6875C53.6563 21.268 53.2944 22.0671 53.2944 22.9718V42.634C53.2944 42.8903 53.2416 43.1165 53.1587 43.3351C53.121 43.4407 53.0682 43.5387 53.0004 43.6292V43.6442C52.8797 43.8327 52.7214 43.991 52.5329 44.1117C52.4349 44.1795 52.3294 44.2323 52.2238 44.27C52.0052 44.3529 51.779 44.4057 51.5227 44.4057C51.0251 44.4057 50.5954 44.2021 50.2712 43.8855C50.1355 43.7649 50.0299 43.6066 49.947 43.4407C49.8264 43.1994 49.7585 42.928 49.7585 42.634V29.6968C49.7585 29.5611 49.7434 29.4254 49.7208 29.2972C49.6303 28.4528 49.2082 27.7291 48.5899 27.2315C48.4995 27.1636 48.4165 27.0958 48.3185 27.0279C48.1677 26.9224 48.0094 26.8244 47.836 26.7565C47.6777 26.6736 47.4968 26.6057 47.3158 26.568C47.1801 26.5379 47.0369 26.5153 46.9012 26.4851C46.7805 26.47 46.6448 26.4549 46.5242 26.4549C45.6346 26.4549 44.8204 26.8168 44.2323 27.3973C43.6518 27.9854 43.2899 28.7921 43.2899 29.6892V50.6406C43.2899 51.191 43.4256 51.7112 43.6669 52.171C43.8026 52.4274 43.9609 52.6536 44.1795 52.8571C44.368 53.0682 44.5942 53.2491 44.8354 53.4075C45.333 53.7015 45.8985 53.8749 46.5167 53.8749C47.067 53.8749 47.6023 53.7392 48.0622 53.4829C48.2507 53.3924 48.4241 53.2642 48.5824 53.1361C48.6503 53.0833 48.703 53.0305 48.7558 52.9777C49.3891 52.3897 49.7661 51.5528 49.7661 50.6406V47.248C49.7661 47.0067 49.8188 46.7655 49.9018 46.5619C49.9998 46.3357 50.1279 46.1472 50.2938 45.9965C50.618 45.6572 51.0477 45.4763 51.5302 45.4763C52.0127 45.4763 52.4575 45.6798 52.7742 45.9965C52.9325 46.1472 53.0682 46.3357 53.1662 46.5619C53.2491 46.7655 53.3019 47.0067 53.3019 47.248V57.3655C53.3019 59.1674 54.7494 60.6149 56.5362 60.6149C58.323 60.6149 59.7705 59.1674 59.7705 57.3655V36.5122C59.7705 36.2559 59.8233 36.0297 59.9062 35.8111C60.0042 35.5924 60.1324 35.4115 60.2983 35.2456C60.6074 34.9214 61.0522 34.7254 61.5347 34.7254C62.0172 34.7254 62.4771 34.929 62.7862 35.2456C62.9445 35.4039 63.0802 35.5924 63.1782 35.8111C63.2612 36.0297 63.3139 36.2559 63.3139 36.5122V60.5923C63.3139 60.6602 63.3139 60.728 63.329 60.7808C63.329 60.8486 63.329 60.9014 63.3441 60.9542C63.4119 62.3263 64.3393 63.4798 65.5983 63.8643C65.8019 63.9321 65.9979 63.9698 66.2165 64C68.1465 64.2036 69.7901 62.6731 69.7901 60.7808V47.2555C69.7901 46.2754 70.5817 45.4838 71.5618 45.4838C72.0443 45.4838 72.4891 45.6874 72.7982 46.004C72.8962 46.0719 72.9565 46.1623 73.0244 46.2603C73.2129 46.5393 73.3184 46.8936 73.3184 47.2555V57.3731C73.3184 58.2702 73.6803 59.0769 74.2684 59.665C74.9243 60.336 75.8667 60.7129 76.8844 60.6074C77.088 60.5848 77.2991 60.5395 77.4876 60.4868C77.5931 60.4491 77.7062 60.4038 77.8118 60.3661C77.9625 60.2983 78.1058 60.2153 78.2415 60.1399C79.1839 59.5745 79.8021 58.5567 79.8021 57.3731V36.5197C79.8021 36.1428 79.9076 35.811 80.0961 35.5095C80.4052 35.0421 80.9405 34.7329 81.5587 34.7329C82.1769 34.7329 82.6971 35.0421 83.0213 35.5095C83.2098 35.8035 83.3154 36.1428 83.3154 36.5197V50.4521C83.3154 50.52 83.3154 50.5878 83.3304 50.6557C83.3304 50.7084 83.3304 50.7612 83.3455 50.8291C83.3983 51.9976 84.0843 53.0004 85.0644 53.513C85.2378 53.611 85.4263 53.6864 85.6299 53.7543C85.8334 53.807 86.0295 53.8447 86.233 53.8749C87.2508 53.9654 88.1932 53.5959 88.834 52.9325C89.0225 52.7591 89.1733 52.5555 89.3165 52.3444V52.3294C89.4522 52.1032 89.5578 51.8619 89.6407 51.6207C89.7463 51.3116 89.799 50.9874 89.799 50.6557V47.7003C92.0382 47.165 94.3225 46.6901 96.6597 46.2754C97.4815 46.1246 98.2429 46.7579 98.2429 47.6023V62.8465H108.753V46.0869C108.753 45.333 108.134 44.7299 107.395 44.7299C107.358 44.7299 107.297 44.745 107.26 44.745C105.058 44.9711 102.895 45.2576 100.761 45.5894C100.708 45.6044 100.64 45.6044 100.588 45.6195C99.7658 45.7401 99.0421 45.1219 99.0421 44.3077V39.7465C99.0421 38.9172 99.7658 38.299 100.588 38.4196C100.64 38.4347 100.708 38.4347 100.761 38.4498C101.326 38.5402 101.892 38.6232 102.465 38.691C104.048 38.9323 105.646 39.1207 107.252 39.2791C107.335 39.2941 107.411 39.2941 107.493 39.2791C108.18 39.2263 108.737 38.6458 108.737 37.9371V37.2133C108.737 30.1567 112.952 25.9423 118.976 25.9423C119.111 25.9423 119.247 25.9423 119.375 25.9574C119.443 25.9574 119.526 25.9574 119.594 25.9724C119.865 25.9724 120.114 26.0026 120.37 26.0252C120.453 26.0403 120.529 26.0403 120.612 26.0629C120.891 26.078 121.162 26.1308 121.433 26.1835C121.486 26.1986 121.539 26.2137 121.592 26.2212C121.863 26.274 122.127 26.3419 122.383 26.4399C122.64 26.5077 122.896 26.5982 123.152 26.7113C123.378 26.8017 123.597 26.8998 123.808 27.0204C123.876 27.0505 123.959 27.0882 124.027 27.1259C124.283 27.2767 124.54 27.42 124.781 27.6084C125.007 27.7592 125.211 27.9175 125.414 28.0909C125.467 28.1286 125.512 28.1739 125.565 28.2266C125.738 28.3774 125.904 28.5358 126.032 28.7092C126.1 28.7619 126.153 28.8298 126.206 28.8976C126.605 29.35 126.967 29.8626 127.269 30.4432C127.419 30.6844 127.54 30.9407 127.646 31.2046C128.354 32.818 128.716 34.7782 128.716 37.0399V38.8493C128.716 39.5882 129.319 40.1913 130.058 40.1913H137.786C138.525 40.1913 139.128 39.5882 139.128 38.8493V33.8584C139.128 33.1346 139.098 32.426 139.045 31.7399C139.015 31.4836 138.992 31.2423 138.962 31.0011L138.985 30.9634Z" fill="white"/>
</g>
<defs>
<clipPath id="clip0_445_213">
<rect width="557.838" height="64" fill="white"/>
</clipPath>
</defs>
</svg>
